#!OML:ASF I:\Actors\actors\Patient Classification 2\Patient 1\Session 1\actor1.ASF
:FULLY-SPECIFIED
:DEGREES
955
root -0.702962 18.8319 4.78436 26.0017 2.91023 -0.747979
lowerback 25.7223 0.358917 1.90087
upperback 1.85301 1.15022 1.07242
thorax -12.2993 0.457101 -0.286907
lowerneck -10.7904 -4.19965 -2.86577
upperneck 12.2252 -5.95957 5.46349
head 5.71843 -2.63292 1.69666
rclavicle 4.37326e-015 5.1684e-015
rhumerus -0.329674 26.1355 -73.2989
rradius 44.6997
rwrist 11.6505
rhand -24.1165 -36.0363
rfingers 7.12502
rthumb 2.36485 -66.003
lclavicle 4.37326e-015 5.1684e-015
lhumerus 3.90661 -23.9152 79.6923
lradius 44.0847
lwrist -13.813
lhand -21.1752 -43.4828
lfingers 7.12502
lthumb 5.20518 -13.5667
rfemur -30.0065 -1.0821 14.6533
rtibia 13.3478
rfoot -19.8717 -16.266
rtoes -3.73886
lfemur -41.2101 -0.393795 -11.746
ltibia 28.1927
lfoot -13.7155 7.88097
ltoes -55.9146
956
root -0.702921 18.8336 4.78554 25.729 2.81272 -0.742826
lowerback 25.639 0.388372 1.79133
upperback 1.8891 1.15332 1.06632
thorax -12.2144 0.465365 -0.231078
lowerneck -11.1718 -4.17258 -2.84499
upperneck 13.6147 -5.95081 5.23078
head 6.21284 -2.61433 1.60681
rclavicle -1.11319e-014 6.75868e-015
rhumerus -0.54021 26.0047 -73.5285
rradius 44.6053
rwrist 11.6964
rhand -24.0502 -35.6769
rfingers 7.12502
rthumb 2.42892 -65.6428
lclavicle -1.11319e-014 6.75868e-015
lhumerus 3.73864 -23.8334 79.7916
lradius 44.0352
lwrist -13.6944
lhand -20.795 -43.3504
lfingers 7.12502
lthumb 5.57226 -13.4437
rfemur -29.6272 -1.02872 14.6261
rtibia 13.1755
rfoot -19.8013 -16.2509
rtoes -3.68603
lfemur -40.8543 -0.373702 -11.7874
ltibia 28.1574
lfoot -13.7848 7.87333
ltoes -55.8463
957
root -0.70293 18.8361 4.78759 25.453 2.75886 -0.720991
lowerback 25.5162 0.405799 1.67468
upperback 1.91546 1.13938 1.06705
thorax -12.12 0.466517 -0.157126
lowerneck -11.3807 -4.08779 -2.72602
upperneck 14.8241 -5.86128 4.93757
head 6.61711 -2.56412 1.49354
rclavicle 5.56597e-015 4.77083e-015
rhumerus -0.807743 25.9064 -73.7688
rradius 44.5674
rwrist 11.8514
rhand -23.6321 -35.7104
rfingers 7.12502
rthumb 2.8327 -65.6713
lclavicle 5.56597e-015 4.77083e-015
lhumerus 3.46484 -23.6665 79.9654
lradius 44.0355
lwrist -13.814
lhand -20.4994 -43.0826
lfingers 7.12502
lthumb 5.8577 -13.1836
rfemur -29.2095 -0.987341 14.5844
rtibia 12.9599
rfoot -19.7381 -16.2812
rtoes -3.71582
lfemur -40.5024 -0.398415 -11.8312
ltibia 28.1142
lfoot -13.8288 7.88401
ltoes -55.8288
958
root -0.703929 18.8395 4.79079 25.1309 2.7066 -0.76654
lowerback 25.4625 0.444043 1.65616
upperback 1.90522 1.18052 1.05112
thorax -12.1023 0.485908 -0.178428
lowerneck -11.5146 -3.97608 -2.34603
upperneck 15.9789 -5.73712 4.41712
head 6.97916 -2.50481 1.26958
rclavicle -3.18055e-015 4.77083e-015
rhumerus -1.24474 25.73 -74.0743
rradius 44.5475
rwrist 11.9104
rhand -23.3636 -35.5877
rfingers 7.12502
rthumb 3.09193 -65.545
lclavicle -3.18055e-015 4.77083e-015
lhumerus 3.15021 -23.6051 80.1581
lradius 44.0078
lwrist -14.0163
lhand -20.1943 -42.9481
lfingers 7.12502
lthumb 6.15228 -13.0575
rfemur -28.7375 -0.910118 14.6165
rtibia 12.734
rfoot -19.6453 -16.3227
rtoes -3.92014
lfemur -40.0881 -0.379439 -11.8124
ltibia 28.0584
lfoot -13.8654 7.87248
ltoes -55.8559
959
root -0.70575 18.8423 4.79433 24.7732 2.64344 -0.844847
lowerback 25.493 0.478418 1.72166
upperback 1.83603 1.23725 0.985946
thorax -12.1949 0.504789 -0.310188
lowerneck -11.7048 -3.93027 -2.07558
upperneck 17.2095 -5.73125 4.17359
head 7.39655 -2.48308 1.13849
rclavicle 2.18663e-015 -9.93923e-015
rhumerus -1.82834 25.4536 -74.5369
rradius 44.4987
rwrist 12.0129
rhand -23.2267 -35.3921
rfingers 7.12502
rthumb 3.22416 -65.3474
lclavicle 2.18663e-015 -9.93923e-015
lhumerus 2.78928 -23.7247 80.2663
lradius 43.9775
lwrist -14.0505
lhand -19.6923 -42.7832
lfingers 7.12502
lthumb 6.63689 -12.9072
rfemur -28.2014 -0.797815 14.6838
rtibia 12.4546
rfoot -19.5255 -16.3856
rtoes -4.09998
lfemur -39.6262 -0.321067 -11.7695
ltibia 27.9907
lfoot -13.8912 7.85338
ltoes -55.9067
960
root -0.707602 18.8451 4.79943 24.4141 2.60226 -0.891547
lowerback 25.4596 0.489494 1.73339
upperback 1.77351 1.25048 0.946967
thorax -12.2476 0.508124 -0.365543
lowerneck -11.9467 -3.93335 -2.22111
upperneck 18.461 -5.80967 4.42538
head 7.86634 -2.48151 1.22747
rclavicle 3.57812e-015 -9.93923e-015
rhumerus -2.31794 25.2288 -74.9697
rradius 44.4164
rwrist 12.3247
rhand -22.6316 -35.3928
rfingers 7.12502
rthumb 3.79885 -65.3387
lclavicle 3.57812e-015 -9.93923e-015
lhumerus 2.34296 -23.7908 80.3811
lradius 44.0357
lwrist -14.0361
lhand -19.1619 -42.4393
lfingers 7.12502
lthumb 7.14888 -12.58
rfemur -27.6043 -0.694997 14.7191
rtibia 12.0892
rfoot -19.4359 -16.4639
rtoes -3.96563
lfemur -39.1557 -0.302251 -11.7438
ltibia 27.9117
lfoot -13.9087 7.84724
ltoes -55.953
961
root -0.706866 18.8495 4.80881 24.0146 2.56855 -0.91479
lowerback 25.3475 0.49403 1.69507
upperback 1.76071 1.24533 0.962696
thorax -12.2029 0.509033 -0.322702
lowerneck -12.1495 -3.9338 -2.47854
upperneck 19.5512 -5.86391 4.69699
head 8.285 -2.47687 1.34788
rclavicle 1.07344e-014 1.94809e-014
rhumerus -2.71256 25.0998 -75.2622
rradius 44.339
rwrist 12.5592
rhand -21.8108 -35.2857
rfingers 7.12502
rthumb 4.59148 -65.2159
lclavicle 1.07344e-014 1.94809e-014
lhumerus 1.93067 -23.6922 80.5937
lradius 44.0418
lwrist -14.1359
lhand -18.8292 -42.1153
lfingers 7.12502
lthumb 7.47005 -12.2672
rfemur -26.9257 -0.655343 14.7362
rtibia 11.6859
rfoot -19.3455 -16.4929
rtoes -3.81303
lfemur -38.6114 -0.337542 -11.7409
ltibia 27.8182
lfoot -13.949 7.86259
ltoes -55.9895
962
root -0.704089 18.855 4.82344 23.5742 2.54097 -0.933818
lowerback 25.151 0.489566 1.6909
upperback 1.78351 1.23347 0.964376
thorax -12.0702 0.505614 -0.312038
lowerneck -12.339 -3.92063 -2.59181
upperneck 20.4924 -5.90276 4.86212
head 8.64808 -2.46739 1.41351
rclavicle 1.21259e-014 -4.77083e-015
rhumerus -3.1369 24.9783 -75.5559
rradius 44.2662
rwrist 12.7038
rhand -21.2723 -35.0711
rfingers 7.12502
rthumb 5.11144 -64.9894
lclavicle 1.21259e-014 -4.77083e-015
lhumerus 1.60575 -23.5418 80.8202
lradius 43.9036
lwrist -14.2655
lhand -18.4202 -41.8629
lfingers 7.12502
lthumb 7.86474 -12.0291
rfemur -26.1742 -0.6444 14.7525
rtibia 11.2737
rfoot -19.2493 -16.4937
rtoes -3.76656
lfemur -37.9961 -0.373791 -11.7615
ltibia 27.7158
lfoot -14.0047 7.87159
ltoes -56.0383
963
root -0.702903 18.8597 4.83819 23.1534 2.52859 -0.953826
lowerback 24.8889 0.48501 1.68628
upperback 1.7897 1.21836 0.951528
thorax -11.9208 0.500415 -0.315784
lowerneck -12.5373 -3.88833 -2.4882
upperneck 21.4731 -5.90946 4.77939
head 9.01474 -2.44999 1.36434
rclavicle -1.55052e-014 -8.34896e-015
rhumerus -3.63276 24.8307 -75.9112
rradius 44.2002
rwrist 12.7731
rhand -20.7639 -34.8665
rfingers 7.12502
rthumb 5.60233 -64.7725
lclavicle -1.55052e-014 -8.34896e-015
lhumerus 1.21097 -23.4555 81.0205
lradius 43.8237
lwrist -14.3217
lhand -17.856 -41.6818
lfingers 7.12502
lthumb 8.40934 -11.8692
rfemur -25.4312 -0.601772 14.7716
rtibia 10.845
rfoot -19.1639 -16.5449
rtoes -3.78015
lfemur -37.4121 -0.397322 -11.7724
ltibia 27.6164
lfoot -14.0565 7.8654
ltoes -56.0721
964
root -0.701331 18.8623 4.85067 22.6931 2.49885 -0.977264
lowerback 24.7276 0.492628 1.65852
upperback 1.74659 1.2175 0.94831
thorax -11.8832 0.501872 -0.301559
lowerneck -12.6307 -3.86179 -2.20736
upperneck 22.4575 -5.89056 4.38769
head 9.3511 -2.44016 1.18473
rclavicle -4.37326e-015 -5.96354e-015
rhumerus -4.25217 24.5903 -76.3249
rradius 44.1723
rwrist 12.8648
rhand -20.004 -34.585
rfingers 7.12502
rthumb 6.33596 -64.4702
lclavicle -4.37326e-015 -5.96354e-015
lhumerus 0.666003 -23.4412 81.2572
lradius 43.8746
lwrist -14.3361
lhand -17.3598 -41.4233
lfingers 7.12502
lthumb 8.88811 -11.6305
rfemur -24.6548 -0.572697 14.798
rtibia 10.4034
rfoot -19.027 -16.5888
rtoes -3.83136
lfemur -36.8008 -0.384577 -11.7978
ltibia 27.5261
lfoot -14.0912 7.83431
ltoes -56.1242
965
root -0.69882 18.8634 4.86412 22.1439 2.45273 -0.997811
lowerback 24.6453 0.491323 1.60566
upperback 1.70309 1.2001 0.944805
thorax -11.8897 0.496566 -0.268482
lowerneck -12.5845 -3.86281 -2.21121
upperneck 23.2733 -5.93993 4.41705
head 9.63207 -2.44626 1.19045
rclavicle -9.14409e-015 -3.97569e-015
rhumerus -4.91021 24.2957 -76.7929
rradius 44.1485
rwrist 13.1116
rhand -19.2515 -34.1319
rfingers 7.12502
rthumb 7.0624 -63.994
lclavicle -9.14409e-015 -3.97569e-015
lhumerus 0.0936368 -23.4396 81.4603
lradius 43.9043
lwrist -14.3178
lhand -16.8609 -41.0247
lfingers 7.12502
lthumb 9.3696 -11.2529
rfemur -23.7743 -0.476863 14.7851
rtibia 9.94994
rfoot -18.9213 -16.6622
rtoes -3.76612
lfemur -36.0841 -0.348292 -11.8473
ltibia 27.4421
lfoot -14.1447 7.75477
ltoes -56.1533
966
root -0.697752 18.8647 4.88004 21.5951 2.38865 -1.04058
lowerback 24.4814 0.495294 1.52585
upperback 1.68792 1.18136 0.953542
thorax -11.82 0.493347 -0.204778
lowerneck -12.6678 -3.85802 -2.43871
upperneck 24.1497 -6.01081 4.74694
head 9.98183 -2.44553 1.33416
rclavicle -5.1684e-015 -9.93923e-015
rhumerus -5.54451 24.0892 -77.2286
rradius 44.1466
rwrist 13.1883
rhand -18.726 -33.6474
rfingers 7.12502
rthumb 7.56962 -63.4919
lclavicle -5.1684e-015 -9.93923e-015
lhumerus -0.451051 -23.3145 81.6674
lradius 43.9006
lwrist -14.2872
lhand -16.0904 -40.5878
lfingers 7.12502
lthumb 10.113 -10.8508
rfemur -22.8727 -0.352238 14.7968
rtibia 9.45273
rfoot -18.8059 -16.7575
rtoes -3.80463
lfemur -35.3514 -0.356208 -11.8446
ltibia 27.3562
lfoot -14.2333 7.73381
ltoes -56.1871
